# xmcd
#
# Track frame offsets:
#	150
#	16530
#	33382
#	47129
#	63979
#	80328
#	96318
#	111450
#	127697
#	141524
#	169855
#	185922
#	201036
#	217703
#	233255
#	245792
#	260927
#	276319
#	295053
#	307868
#
# Disc length: 4305 seconds
#
# Revision: 0
# Processed by: cddbd v1.5.2PL0 Copyright (c) Steve Scherf et al.
# Submitted via: EasyCDDAExtractor 11.6.0.1
#
DISCID=2010cf14
DTITLE=Various Artist - Country Collection V-13 (MP3)
DYEAR=1900
DGENRE=Country
TTITLE0=Michael Peterson  - Lost In The Shuffle
TTITLE1=Michael Peterson  - When The Bartender Cries
TTITLE2=Michael Peterson  - Drink, Swear, Steal and Lie
TTITLE3=Michael Peterson and Travis Tritt - I Finally Passed The Bar (With Travi
TTITLE3=s Tritt)
TTITLE4=Michael Peterson  - From Here To Eternity
TTITLE5=Michael Peterson  - That's What They Said About The Buffalo
TTITLE6=Michael Peterson  - Too Good To Be True
TTITLE7=Michael Peterson  - Since I Thought I Knew It All
TTITLE8=Michael Peterson  - By The Book
TTITLE9=Michael Peterson  - For A Song
TTITLE10=Wade Hayes - Don't Make Me Come To Tulsa
TTITLE11=Wade Hayes - I'm Still Dancing With You
TTITLE12=Wade Hayes - Old Enough To Know Better
TTITLE13=Wade Hayes - Kentucky Bluebird
TTITLE14=Wade Hayes - Don't Stop
TTITLE15=Wade Hayes - What I Meant To Say
TTITLE16=Wade Hayes - Steady As She Goes
TTITLE17=Wade Hayes - Family Reunion
TTITLE18=Wade Hayes - Someone Had To Teach You
TTITLE19=Wade Hayes - It's Gonna Take A Miracle
EXTD=
EXTT0=
EXTT1=
EXTT2=
EXTT3=
EXTT4=
EXTT5=
EXTT6=
EXTT7=
EXTT8=
EXTT9=
EXTT10=
EXTT11=
EXTT12=
EXTT13=
EXTT14=
EXTT15=
EXTT16=
EXTT17=
EXTT18=
EXTT19=
PLAYORDER=
